<?xml version="1.0" standalone="no"?>
<!DOCTYPE svg PUBLIC "-//W3C//DTD SVG 20010904//EN"
 "http://www.w3.org/TR/2001/REC-SVG-20010904/DTD/svg10.dtd">
<svg version="1.0" xmlns="http://www.w3.org/2000/svg"
 width="3000.000000pt" height="2000.000000pt" viewBox="0 0 3000.000000 2000.000000"
 preserveAspectRatio="xMidYMid meet">
<metadata>
Created by potrace 1.16, written by Peter Selinger 2001-2019
</metadata>
<g transform="translate(0.000000,2000.000000) scale(0.100000,-0.100000)"
fill="#000000" stroke="none">
<path d="M3700 7975 l0 -5665 151 0 150 0 -6 -117 c-3 -65 -2 -149 3 -188 8
-60 10 -43 11 118 l1 187 680 0 680 0 1 -187 c1 -144 3 -180 11 -153 5 19 8
103 6 188 l-3 152 644 0 c568 0 642 -2 637 -15 -4 -12 3 -15 34 -15 l40 0 1
-152 c0 -84 4 -162 9 -173 5 -12 9 47 9 153 l1 172 55 0 55 0 -11 -27 c-18
-48 4 -50 89 -11 l77 37 520 6 c327 3 521 9 523 15 2 6 15 10 29 10 l25 0 -6
-112 c-3 -62 -2 -147 3 -188 l8 -75 3 85 c2 47 2 131 0 188 l-2 102 681 0 681
0 0 -190 0 -190 -3782 -2 c-2081 -1 -3643 -5 -3473 -9 405 -8 21995 -8 22400
0 171 4 -1310 8 -3290 9 l-3600 2 0 190 0 190 680 0 680 0 -3 -162 c-2 -95 1
-174 7 -188 7 -18 10 26 10 163 l1 187 681 0 682 0 -7 -93 c-3 -51 -3 -135 1
-187 l8 -95 7 80 c3 44 4 128 1 187 l-6 108 682 0 681 0 1 -187 c0 -137 3
-181 10 -163 6 14 9 93 7 188 l-3 162 680 0 680 0 -3 -162 c-2 -95 1 -174 7
-188 7 -18 10 26 10 163 l1 187 681 0 682 0 -7 -92 c-3 -51 -3 -135 1 -188 l8
-95 7 80 c3 44 4 128 1 186 l-6 106 318 6 c175 4 447 7 605 7 l287 0 98 82
c295 246 525 626 620 1026 l17 72 114 0 114 0 0 -225 0 -225 678 0 679 0 139
111 c218 175 326 271 504 449 182 182 271 289 343 413 86 148 87 155 87 586
l0 377 -437 215 -438 215 -98 234 c-55 128 -114 273 -133 322 l-34 88 30 73
c17 39 61 135 99 212 61 124 67 141 53 153 -9 6 -99 54 -201 106 -454 230
-1204 526 -1805 712 -346 107 -490 138 -855 184 -179 22 -328 43 -333 48 -4 4
-9 449 -11 987 -1 539 -3 -621 -5 -2577 l-2 -3558 -105 0 -105 0 -1 3448 c-1
1896 -5 3528 -8 3627 -4 102 -8 -270 -9 -861 l-2 -1040 -97 12 c-337 44 -577
73 -638 78 -38 3 -106 8 -150 11 -44 3 -92 8 -107 11 -15 3 -163 71 -330 151
-167 80 -334 160 -373 178 -38 18 -414 196 -835 395 -421 199 -792 375 -825
390 -33 15 -133 61 -222 103 -89 42 -190 90 -225 106 -35 16 -200 93 -368 171
-738 344 -1371 626 -1590 708 -490 183 -1297 352 -2085 437 -510 55 -853 75
-1405 82 -601 8 -1086 -13 -1620 -67 -107 -12 -359 -36 -560 -55 -420 -40
-462 -44 -510 -50 -19 -3 -66 -7 -105 -11 -38 -3 -81 -7 -95 -9 -14 -2 -59 -6
-100 -10 -41 -4 -86 -8 -100 -10 -14 -2 -54 -6 -90 -10 -36 -3 -81 -8 -100
-10 -19 -3 -125 -14 -235 -25 -457 -47 -1046 -119 -1425 -176 -481 -72 -489
-74 -1793 -461 -400 -118 -729 -214 -731 -212 -2 2 -18 297 -36 654 -37 769
-57 967 -115 1168 -22 78 -22 79 -2 73 38 -10 114 14 154 49 58 49 87 122 81
200 l-5 61 27 -4 c69 -10 171 51 210 128 40 79 35 194 -15 306 l-23 51 51 34
c139 92 157 285 37 393 l-38 34 25 34 c58 78 78 153 61 231 -16 76 -89 147
-151 147 -24 0 -25 3 -24 58 1 102 -60 193 -148 222 -37 12 -134 10 -167 -4
-12 -6 -18 0 -23 23 -3 17 -22 44 -42 62 -35 30 -39 31 -112 27 -104 -4 -130
8 -160 77 -43 100 -141 165 -250 166 -51 1 -62 5 -75 24 -41 62 -211 103 -313
74 -27 -7 -101 -13 -173 -14 -102 0 -131 -4 -160 -19 -70 -37 -117 -84 -154
-155 -26 -51 -49 -79 -81 -101 -69 -47 -87 -86 -94 -199 -5 -75 -11 -104 -28
-132 -28 -45 -29 -82 -2 -161 16 -48 18 -67 10 -91 -16 -43 -13 -103 5 -139
11 -22 14 -43 9 -78 -5 -37 -2 -59 14 -94 11 -25 21 -46 23 -46 2 0 2 33 1 72
-3 137 17 422 33 486 13 49 22 66 43 77 36 18 101 103 101 131 0 17 9 25 34
34 34 11 106 80 106 100 0 7 6 7 20 0 10 -6 47 -13 82 -17 44 -4 71 -13 91
-29 52 -43 140 -40 182 7 18 19 18 19 40 -1 26 -24 76 -40 128 -40 22 0 36 -4
32 -10 -3 -5 -1 -27 4 -48 12 -41 52 -86 89 -97 21 -6 22 -11 17 -50 -8 -48 4
-79 42 -111 22 -19 24 -24 13 -44 -14 -27 -5 -68 22 -97 11 -12 18 -28 14 -35
-4 -7 -13 -24 -21 -38 -21 -35 -18 -67 6 -91 16 -16 18 -23 9 -34 -6 -8 -10
-24 -8 -37 3 -26 24 -28 130 -13 54 7 58 6 86 -22 l29 -29 36 23 c51 32 70 74
75 167 4 66 10 87 36 129 26 43 31 60 31 116 0 50 -5 75 -22 103 -20 35 -22
78 -2 78 12 0 40 -57 55 -115 41 -153 -18 -370 -136 -499 -50 -53 -54 -62 -51
-101 5 -85 -30 -160 -90 -191 -28 -14 -30 -14 -39 10 -19 50 -86 61 -125 21
-21 -20 -25 -34 -26 -87 0 -35 -10 -145 -23 -245 l-22 -181 25 -15 c15 -9 49
-39 76 -68 l50 -52 -35 7 c-204 39 -363 -4 -490 -134 -73 -75 -115 -141 -166
-258 -38 -88 -85 -261 -108 -397 -21 -122 -78 -614 -73 -628 9 -29 28 77 57
318 17 143 41 314 55 380 78 387 228 619 443 685 121 38 306 17 423 -46 57
-32 134 -109 171 -174 59 -101 103 -286 133 -562 8 -79 31 -462 50 -853 19
-390 58 -1168 86 -1728 28 -560 50 -1019 48 -1021 -6 -5 -1767 19 -1772 24 -3
3 4 82 14 175 88 765 208 1892 204 1904 -3 8 -8 12 -10 9 -3 -3 -155 -1408
-155 -1435 0 -2 -63 -3 -140 -3 l-141 0 7 37 c6 31 5 35 -10 30 -43 -17 -1317
-417 -1326 -417 -3 0 -4 170 -2 377 2 208 -1 403 -6 433 -7 38 -10 -79 -11
-388 l-1 -442 -52 -72 -53 -73 -3 298 c-1 163 -1 430 0 592 l3 294 51 -67 c56
-75 47 -72 242 -86 48 -4 134 -11 192 -17 153 -13 147 -14 154 24 8 41 61 132
117 198 45 54 77 73 208 125 47 18 80 33 73 34 -64 1 -826 -99 -955 -126 -38
-8 -73 -14 -78 -14 -5 0 -9 979 -9 2560 l0 2560 -510 0 -510 0 0 -5665z m9566
1226 c-17 -28 -809 -381 -823 -367 -10 10 329 170 652 307 164 70 180 75 171
60z m-8726 -421 l0 -340 -307 2 -308 3 -3 338 -2 337 310 0 310 0 0 -340z
m9215 241 c-13 -13 -289 -137 -545 -246 -411 -174 -1003 -404 -1190 -462 -117
-36 18 23 500 216 289 115 683 275 875 355 193 80 354 145 360 146 6 0 6 -3 0
-9z m4685 -5 c0 -15 -1256 -680 -1449 -767 -116 -53 -42 -4 174 114 405 220
1247 657 1267 657 5 0 8 -2 8 -4z m565 -45 c-30 -29 -1477 -763 -1556 -789
-34 -11 -34 -11 -10 6 64 46 1537 792 1564 792 7 0 7 -3 2 -9z m1957 -345
c170 -70 408 -308 575 -576 48 -78 84 -146 78 -151 -2 -2 -8 -56 -14 -120 -17
-177 -30 -210 -116 -297 l-74 -73 -388 3 -388 3 -63 29 c-80 37 -152 114 -182
194 -46 121 -23 381 56 610 80 236 151 336 267 381 74 29 175 27 249 -3z m751
-773 c50 -49 97 -145 97 -197 0 -75 -19 -118 -73 -171 -62 -60 -104 -75 -217
-75 l-83 0 40 29 c111 80 146 161 147 339 l1 112 26 0 c16 0 39 -13 62 -37z
m-12688 -2669 c403 -67 772 -339 963 -712 303 -588 135 -1307 -397 -1701 -144
-106 -347 -197 -531 -237 -121 -27 -419 -27 -540 0 -117 25 -237 69 -352 128
l-98 50 0 39 c0 33 5 41 29 54 l30 15 -58 124 c-33 68 -62 142 -66 164 l-6 39
66 13 65 12 -5 32 c-3 17 -11 71 -19 121 l-14 90 25 -30 c147 -180 257 -258
443 -317 65 -20 95 -23 230 -23 135 0 165 3 230 23 237 75 415 229 515 445 56
121 69 185 69 342 1 168 -12 226 -84 372 -39 79 -67 119 -127 183 -116 124
-220 188 -380 236 -119 36 -306 38 -428 5 -268 -72 -481 -270 -575 -533 -10
-29 -19 -48 -19 -43 -1 6 -28 181 -61 390 l-59 380 37 33 c66 58 226 161 314
201 252 117 519 151 803 105z m15758 16 l27 0 0 -263 0 -263 -132 0 c-192 0
-313 -35 -461 -130 -170 -110 -296 -285 -348 -482 -29 -110 -29 -297 0 -407
81 -303 307 -524 608 -596 69 -16 112 -20 210 -17 l123 3 -2 -265 -3 -265
-160 0 c-172 1 -265 15 -405 61 -402 135 -720 453 -854 854 -48 146 -66 259
-66 426 0 162 16 271 61 412 67 208 170 375 333 538 119 119 220 193 356 260
191 94 440 150 620 138 36 -2 77 -4 93 -4z m350 -79 c92 -32 247 -116 338
-185 279 -210 467 -520 524 -865 25 -149 17 -387 -19 -528 -109 -436 -409
-779 -821 -943 -41 -16 -80 -30 -85 -30 -6 0 -10 106 -10 283 l0 283 63 41
c169 111 301 305 343 502 21 100 18 281 -6 377 -26 102 -95 242 -160 321 -53
66 -139 140 -202 176 l-38 22 0 283 c0 155 4 282 8 282 5 0 34 -9 65 -19z
m-20250 -1314 c151 -175 177 -194 322 -241 161 -51 411 -106 795 -176 179 -32
723 -120 744 -120 3 0 6 52 6 115 l0 116 77 -3 76 -3 29 -114 c52 -208 159
-444 274 -607 13 -19 11 -24 -27 -67 l-41 -47 25 -9 c27 -10 57 -47 57 -69 0
-8 -18 1 -42 22 -23 20 -45 36 -49 36 -5 0 -27 -25 -51 -54 -24 -30 -52 -58
-63 -61 -40 -14 -222 -117 -273 -156 l-52 -39 -985 0 -985 0 0 833 1 832 25
-30 c15 -16 76 -88 137 -158z m5977 -532 l0 -225 5890 0 5890 0 0 225 0 225
69 0 69 0 17 -76 c87 -391 326 -778 645 -1047 l55 -47 -6770 0 -6770 0 40 32
c71 57 215 201 276 274 126 154 229 329 302 514 44 110 97 292 97 331 0 17 9
19 95 19 l95 0 0 -225z m3 -1158 l2 -187 -680 0 -680 0 0 190 0 190 678 -2
678 -3 2 -188z m1373 3 l0 -190 -678 0 -678 0 0 190 0 190 678 0 678 0 0 -190z
m1374 0 l0 -190 -679 0 -679 0 0 190 0 190 679 0 679 0 0 -190z m1373 -3 l2
-187 -680 0 -680 0 0 190 0 190 678 -2 678 -3 2 -188z m1373 3 l0 -190 -678 0
-678 0 0 190 0 190 678 0 678 0 0 -190z m1374 0 l0 -190 -679 0 -679 0 0 190
1 190 678 0 679 0 0 -190z"/>
<path d="M1832 13313 c-19 -9 -44 -32 -58 -52 l-24 -36 0 -1155 c0 -1106 1
-1157 19 -1190 10 -20 36 -44 61 -57 l43 -23 730 0 c710 0 732 1 772 20 26 13
49 34 63 59 l22 39 0 1149 c0 1099 -1 1150 -19 1183 -10 19 -36 45 -57 57
l-39 23 -740 0 c-665 0 -743 -2 -773 -17z m956 -482 c175 -64 272 -210 260
-394 -8 -131 -74 -236 -186 -295 -94 -50 -157 -62 -334 -62 l-158 0 0 -150 0
-150 -130 0 -130 0 0 541 0 541 308 -4 c290 -4 311 -6 370 -27z m362 -1396 l0
-45 -550 0 -550 0 0 45 0 45 550 0 550 0 0 -45z m-479 -162 c1 -5 3 -25 4 -45
l3 -38 -314 0 -314 0 0 45 0 45 310 0 c171 0 311 -3 311 -7z"/>
<path d="M2370 12470 c0 -137 3 -180 13 -181 6 0 66 0 131 0 165 1 220 21 258
94 26 52 22 144 -8 184 -51 68 -97 82 -271 83 l-123 0 0 -180z"/>
<path d="M7340 11456 c-73 -16 -147 -56 -190 -102 -34 -35 -33 -35 21 8 85 68
133 83 264 83 98 -1 116 -4 167 -27 154 -72 240 -237 241 -463 0 -88 -11 -153
-88 -526 l-88 -427 -26 9 c-545 176 -838 273 -845 279 -4 5 35 161 88 349 121
424 137 473 192 585 25 50 37 82 29 71 -31 -37 -134 -260 -165 -355 -17 -52
-37 -131 -45 -175 -8 -44 -39 -166 -70 -272 -30 -106 -55 -198 -55 -205 0 -18
910 -320 916 -304 2 6 40 189 84 406 44 217 82 399 83 405 2 5 9 -103 15 -240
28 -611 51 -1127 54 -1214 l3 -94 -57 -19 -57 -19 21 -52 c12 -29 40 -102 64
-164 l43 -112 3 -176 c2 -96 7 -175 12 -175 5 0 6 81 2 188 -77 2124 -80 2208
-112 2411 -16 105 -57 194 -108 238 -44 37 -123 71 -203 88 -81 17 -119 18
-193 1z"/>
<path d="M6770 9123 c0 -16 -7 -140 -15 -278 -8 -137 -15 -260 -15 -271 0 -20
10 -24 93 -39 294 -54 549 -73 764 -56 142 11 338 40 329 48 -2 3 -53 -4 -113
-14 -153 -26 -545 -26 -728 0 -122 18 -315 54 -322 60 -1 2 4 111 12 243 17
285 18 334 5 334 -5 0 -10 -12 -10 -27z"/>
<path d="M2140 8710 l0 -140 430 0 430 0 0 140 0 140 -430 0 -430 0 0 -140z"/>
<path d="M6766 8445 c13 -146 63 -279 147 -392 208 -279 617 -312 862 -68 103
102 170 262 179 430 5 78 5 78 -4 18 -46 -321 -191 -508 -446 -573 -92 -24
-145 -25 -239 -5 -248 52 -418 247 -484 556 -18 81 -20 86 -15 34z"/>
<path d="M6204 8482 c-6 -4 -21 -29 -35 -56 -13 -27 -59 -87 -102 -132 -89
-94 -92 -88 59 -99 l91 -7 7 93 c3 52 9 120 12 152 7 58 -1 70 -32 49z"/>
<path d="M28431 6372 c401 -280 552 -414 689 -616 73 -108 76 -123 80 -526 3
-190 5 -218 11 -145 4 50 7 183 8 297 1 241 -8 283 -82 395 -100 151 -213 263
-422 420 -128 95 -413 283 -432 283 -3 0 63 -48 148 -108z"/>
<path d="M1860 4352 l0 -2042 381 -2 382 -3 -1 -165 c-1 -91 3 -174 8 -185 5
-13 9 49 9 168 l1 187 336 0 337 0 -5 2030 c-3 1116 -7 2033 -10 2036 -4 3
-328 8 -722 11 l-716 6 0 -2041z m1427 951 c-4 -586 -7 -1495 -7 -2020 l0
-953 -693 0 -694 0 -6 1373 c-4 754 -7 1661 -7 2014 0 603 1 642 18 646 9 3
327 5 706 6 l689 1 -6 -1067z"/>
</g>
</svg>
